# xmcd CD database file
#
# Track frame offsets:
#	150
#	9101
#	46126
#	51288
#	88361
#	118922
#	167696
#	204832
#	242304
#
# Disc length: 3778 seconds
#
# Revision: 0
# Processed by: cddbd v1.5.2PL0 Copyright (c) Steve Scherf et al.
# Submitted via: CDex 1.77
#
DISCID=680ec009
DTITLE=Troy Roberts - Nu-Jive
DYEAR=2011
DGENRE=Jazz
TTITLE0=Chiver-Town
TTITLE1=Brotherlation
TTITLE2=-Nu-Jive Interlude...
TTITLE3=Shavon
TTITLE4=Liberty Nights
TTITLE5=Oscar and the Shoe Box
TTITLE6=Siarus
TTITLE7=The Eclipse
TTITLE8=Mademfalselle
EXTD=YEAR: 2011
EXTT0=
EXTT1=
EXTT2=
EXTT3=
EXTT4=
EXTT5=
EXTT6=
EXTT7=
EXTT8=
PLAYORDER=
